# xmcd
#
# Track frame offsets:
#	150
#	19104
#	35652
#	47948
#	67123
#	85234
#	101927
#	122039
#	140724
#	158753
#	177039
#	194516
#	212185
#	230220
#	246631
#	263259
#	276788
#	293643
#	309113
#	328559
#	344750
#
# Disc length: 4837 seconds
#
# Revision: 1
# Processed by: cddbd v1.5.1PL0 Copyright (c) Steve Scherf et al.
# Submitted via: dBpowerAMP V4.0
#
DISCID=4812e315
DTITLE=Various Artist - Super Italia Vol. 17
DYEAR=05
DGENRE=Techno
TTITLE0=Creepin 2005 - Sound On Line
TTITLE1=Un Monde Porfait - Tres Bien Feat. Ilona
TTITLE2=Wallfare - Gigi D´Agostino
TTITLE3=Running Up - Molinaro Vs. Provenzano
TTITLE4=Music - Prezioso
TTITLE5=Con Noi - The Ninjay Vs. Gabry Ponte
TTITLE6=Its A Miracle - Caramel and Nuts
TTITLE7=I Only Wanna Be With You - 2 Small Deejays
TTITLE8=Live Your Life - Promiseland
TTITLE9=Viollage Goove - Molella
TTITLE10=I Don`t Know Why - Hotel Saint George
TTITLE11=California - C.o.
TTITLE12=Be My Girl - Masha
TTITLE13=Love Me Lovbe Me - Arsenum
TTITLE14=Time 2 Move - Florfilla
TTITLE15=There Is The Girl - Glozzi
TTITLE16=Don´t Be Afriad - No Risk
TTITLE17=We´ll Fly Away - Dee-Bee
TTITLE18=Gehts Noch - Uomo Sono
TTITLE19=From Paris To Berlin - Disco Bee
TTITLE20=Dar, Undo Esti - O-Zone
EXTD=
EXTT0=
EXTT1=
EXTT2=
EXTT3=
EXTT4=
EXTT5=
EXTT6=
EXTT7=
EXTT8=
EXTT9=
EXTT10=
EXTT11=
EXTT12=
EXTT13=
EXTT14=
EXTT15=
EXTT16=
EXTT17=
EXTT18=
EXTT19=
EXTT20=
PLAYORDER=
